<svg xmlns="http://www.w3.org/2000/svg" viewBox="0 0 878 272" width="878" height="272"><title>Livingston Youth Leaders — Radiate Kindness</title><g transform="translate(136.0,136.0)"><g stroke="#E27055" stroke-width="13.0" stroke-linecap="round"><line x1="0.00" y1="-86.00" x2="0.00" y2="-108.00"/><line x1="43.00" y1="-74.48" x2="54.00" y2="-93.53"/><line x1="74.48" y1="-43.00" x2="93.53" y2="-54.00"/><line x1="86.00" y1="0.00" x2="108.00" y2="0.00"/><line x1="74.48" y1="43.00" x2="93.53" y2="54.00"/><line x1="43.00" y1="74.48" x2="54.00" y2="93.53"/><line x1="0.00" y1="86.00" x2="0.00" y2="108.00"/><line x1="-43.00" y1="74.48" x2="-54.00" y2="93.53"/><line x1="-74.48" y1="43.00" x2="-93.53" y2="54.00"/><line x1="-86.00" y1="0.00" x2="-108.00" y2="0.00"/><line x1="-74.48" y1="-43.00" x2="-93.53" y2="-54.00"/><line x1="-43.00" y1="-74.48" x2="-54.00" y2="-93.53"/></g><path d="M 0,52 C -30,30 -62,8 -62,-18 C -62,-42 -42,-56 -22,-52 C -10,-49 -3,-41 0,-33 C 3,-41 10,-49 22,-52 C 42,-56 62,-42 62,-18 C 62,8 30,30 0,52 Z" fill="#4E9AE0" transform="translate(0.00,4.00) scale(0.8600)"/></g><g fill="#1F3348" transform="translate(280.000,138.000)"><path d="M189 92H424V0H75V695H189Z" transform="translate(0.000,0) scale(0.04600,-0.04600)"/><path d="M60 697Q60 728 81.0 749.0Q102 770 133 770Q163 770 184.0 749.0Q205 728 205 697Q205 666 184.0 645.0Q163 624 133 624Q102 624 81.0 645.0Q60 666 60 697ZM189 551V0H75V551Z" transform="translate(20.424,0) scale(0.04600,-0.04600)"/><path d="M288 102 444 551H565L355 0H219L10 551H132Z" transform="translate(32.568,0) scale(0.04600,-0.04600)"/><path d="M60 697Q60 728 81.0 749.0Q102 770 133 770Q163 770 184.0 749.0Q205 728 205 697Q205 666 184.0 645.0Q163 624 133 624Q102 624 81.0 645.0Q60 666 60 697ZM189 551V0H75V551Z" transform="translate(59.064,0) scale(0.04600,-0.04600)"/><path d="M579 325V0H466V308Q466 382 429.0 421.5Q392 461 328 461Q264 461 226.5 421.5Q189 382 189 308V0H75V551H189V488Q217 522 260.5 541.0Q304 560 353 560Q418 560 469.5 533.0Q521 506 550.0 453.0Q579 400 579 325Z" transform="translate(71.208,0) scale(0.04600,-0.04600)"/><path d="M488 471V551H603V-9Q603 -85 571.0 -144.5Q539 -204 478.5 -238.0Q418 -272 334 -272Q222 -272 148.0 -219.5Q74 -167 64 -77H177Q190 -120 232.5 -146.5Q275 -173 334 -173Q403 -173 445.5 -131.0Q488 -89 488 -9V83Q459 44 409.5 17.5Q360 -9 297 -9Q225 -9 165.5 27.5Q106 64 71.5 129.5Q37 195 37 278Q37 361 71.5 425.0Q106 489 165.5 524.5Q225 560 297 560Q361 560 410.5 534.5Q460 509 488 471ZM321 461Q277 461 239.0 439.5Q201 418 177.5 376.5Q154 335 154 278Q154 221 177.5 178.0Q201 135 239.5 112.5Q278 90 321 90Q365 90 403.0 112.0Q441 134 464.5 176.5Q488 219 488 276Q488 333 464.5 375.0Q441 417 403.0 439.0Q365 461 321 461Z" transform="translate(101.062,0) scale(0.04600,-0.04600)"/><path d="M45 169H163Q166 134 196.5 110.5Q227 87 273 87Q321 87 347.5 105.5Q374 124 374 153Q374 184 344.5 199.0Q315 214 251 232Q189 249 150.0 265.0Q111 281 82.5 314.0Q54 347 54 401Q54 445 80.0 481.5Q106 518 154.5 539.0Q203 560 266 560Q360 560 417.5 512.5Q475 465 479 383H365Q362 420 335.0 442.0Q308 464 262 464Q217 464 193.0 447.0Q169 430 169 402Q169 380 185.0 365.0Q201 350 224.0 341.5Q247 333 292 320Q352 304 390.5 287.5Q429 271 457.0 239.0Q485 207 486 154Q486 107 460.0 70.0Q434 33 386.5 12.0Q339 -9 275 -9Q210 -9 158.5 14.5Q107 38 77.0 78.5Q47 119 45 169Z" transform="translate(132.250,0) scale(0.04600,-0.04600)"/><path d="M208 458V153Q208 122 222.5 108.5Q237 95 272 95H342V0H252Q175 0 134.0 36.0Q93 72 93 153V458H28V551H93V688H208V551H342V458Z" transform="translate(156.814,0) scale(0.04600,-0.04600)"/><path d="M38 276Q38 360 75.0 425.0Q112 490 176.0 525.0Q240 560 319 560Q398 560 462.0 525.0Q526 490 563.0 425.0Q600 360 600 276Q600 192 562.0 127.0Q524 62 458.5 26.5Q393 -9 314 -9Q236 -9 173.0 26.5Q110 62 74.0 126.5Q38 191 38 276ZM483 276Q483 336 460.0 377.5Q437 419 399.0 440.0Q361 461 317 461Q273 461 235.5 440.0Q198 419 176.0 377.5Q154 336 154 276Q154 187 199.5 138.5Q245 90 314 90Q358 90 396.5 111.0Q435 132 459.0 174.0Q483 216 483 276Z" transform="translate(173.926,0) scale(0.04600,-0.04600)"/><path d="M579 325V0H466V308Q466 382 429.0 421.5Q392 461 328 461Q264 461 226.5 421.5Q189 382 189 308V0H75V551H189V488Q217 522 260.5 541.0Q304 560 353 560Q418 560 469.5 533.0Q521 506 550.0 453.0Q579 400 579 325Z" transform="translate(203.274,0) scale(0.04600,-0.04600)"/><path d="M590 695 360 252V0H246V252L15 695H142L303 354L464 695Z" transform="translate(245.088,0) scale(0.04600,-0.04600)"/><path d="M38 276Q38 360 75.0 425.0Q112 490 176.0 525.0Q240 560 319 560Q398 560 462.0 525.0Q526 490 563.0 425.0Q600 360 600 276Q600 192 562.0 127.0Q524 62 458.5 26.5Q393 -9 314 -9Q236 -9 173.0 26.5Q110 62 74.0 126.5Q38 191 38 276ZM483 276Q483 336 460.0 377.5Q437 419 399.0 440.0Q361 461 317 461Q273 461 235.5 440.0Q198 419 176.0 377.5Q154 336 154 276Q154 187 199.5 138.5Q245 90 314 90Q358 90 396.5 111.0Q435 132 459.0 174.0Q483 216 483 276Z" transform="translate(272.918,0) scale(0.04600,-0.04600)"/><path d="M574 551V0H460V65Q433 31 389.5 11.5Q346 -8 297 -8Q232 -8 180.5 19.0Q129 46 99.5 99.0Q70 152 70 227V551H183V244Q183 170 220.0 130.5Q257 91 321 91Q385 91 422.5 130.5Q460 170 460 244V551Z" transform="translate(302.266,0) scale(0.04600,-0.04600)"/><path d="M208 458V153Q208 122 222.5 108.5Q237 95 272 95H342V0H252Q175 0 134.0 36.0Q93 72 93 153V458H28V551H93V688H208V551H342V458Z" transform="translate(332.120,0) scale(0.04600,-0.04600)"/><path d="M579 325V0H466V308Q466 382 429.0 421.5Q392 461 328 461Q264 461 226.5 421.5Q189 382 189 308V0H75V740H189V487Q218 522 262.5 541.0Q307 560 360 560Q423 560 472.5 533.0Q522 506 550.5 453.0Q579 400 579 325Z" transform="translate(349.232,0) scale(0.04600,-0.04600)"/><path d="M189 92H424V0H75V695H189Z" transform="translate(391.046,0) scale(0.04600,-0.04600)"/><path d="M576 233H155Q160 167 204.0 127.0Q248 87 312 87Q404 87 442 164H565Q540 88 474.5 39.5Q409 -9 312 -9Q233 -9 170.5 26.5Q108 62 72.5 126.5Q37 191 37 276Q37 361 71.5 425.5Q106 490 168.5 525.0Q231 560 312 560Q390 560 451.0 526.0Q512 492 546.0 430.5Q580 369 580 289Q580 258 576 233ZM461 325Q460 388 416.0 426.0Q372 464 307 464Q248 464 206.0 426.5Q164 389 156 325Z" transform="translate(411.470,0) scale(0.04600,-0.04600)"/><path d="M297 560Q362 560 410.5 534.5Q459 509 488 471V551H603V0H488V82Q459 43 409.0 17.0Q359 -9 295 -9Q224 -9 165.0 27.5Q106 64 71.5 129.5Q37 195 37 278Q37 361 71.5 425.0Q106 489 165.5 524.5Q225 560 297 560ZM321 461Q277 461 239.0 439.5Q201 418 177.5 376.5Q154 335 154 278Q154 221 177.5 178.0Q201 135 239.5 112.5Q278 90 321 90Q365 90 403.0 112.0Q441 134 464.5 176.5Q488 219 488 276Q488 333 464.5 375.0Q441 417 403.0 439.0Q365 461 321 461Z" transform="translate(439.852,0) scale(0.04600,-0.04600)"/><path d="M298 560Q352 560 404.5 536.5Q457 513 488 474V740H603V0H488V83Q460 43 410.5 17.0Q361 -9 297 -9Q225 -9 165.5 27.5Q106 64 71.5 129.5Q37 195 37 278Q37 361 71.5 425.0Q106 489 165.5 524.5Q225 560 298 560ZM321 461Q277 461 239.0 439.5Q201 418 177.5 376.5Q154 335 154 278Q154 221 177.5 178.0Q201 135 239.5 112.5Q278 90 321 90Q365 90 403.0 112.0Q441 134 464.5 176.5Q488 219 488 276Q488 333 464.5 375.0Q441 417 403.0 439.0Q365 461 321 461Z" transform="translate(471.040,0) scale(0.04600,-0.04600)"/><path d="M576 233H155Q160 167 204.0 127.0Q248 87 312 87Q404 87 442 164H565Q540 88 474.5 39.5Q409 -9 312 -9Q233 -9 170.5 26.5Q108 62 72.5 126.5Q37 191 37 276Q37 361 71.5 425.5Q106 490 168.5 525.0Q231 560 312 560Q390 560 451.0 526.0Q512 492 546.0 430.5Q580 369 580 289Q580 258 576 233ZM461 325Q460 388 416.0 426.0Q372 464 307 464Q248 464 206.0 426.5Q164 389 156 325Z" transform="translate(502.228,0) scale(0.04600,-0.04600)"/><path d="M354 560V442H325Q258 442 223.5 408.0Q189 374 189 290V0H75V551H189V471Q214 513 255.5 536.5Q297 560 354 560Z" transform="translate(530.610,0) scale(0.04600,-0.04600)"/><path d="M45 169H163Q166 134 196.5 110.5Q227 87 273 87Q321 87 347.5 105.5Q374 124 374 153Q374 184 344.5 199.0Q315 214 251 232Q189 249 150.0 265.0Q111 281 82.5 314.0Q54 347 54 401Q54 445 80.0 481.5Q106 518 154.5 539.0Q203 560 266 560Q360 560 417.5 512.5Q475 465 479 383H365Q362 420 335.0 442.0Q308 464 262 464Q217 464 193.0 447.0Q169 430 169 402Q169 380 185.0 365.0Q201 350 224.0 341.5Q247 333 292 320Q352 304 390.5 287.5Q429 271 457.0 239.0Q485 207 486 154Q486 107 460.0 70.0Q434 33 386.5 12.0Q339 -9 275 -9Q210 -9 158.5 14.5Q107 38 77.0 78.5Q47 119 45 169Z" transform="translate(548.274,0) scale(0.04600,-0.04600)"/></g><g fill="#E27055" transform="translate(281.500,168.000)"><path d="M436 0 276 278H189V0H75V695H315Q395 695 450.5 667.0Q506 639 533.5 592.0Q561 545 561 487Q561 419 521.5 363.5Q482 308 400 288L572 0ZM189 369H315Q379 369 411.5 401.0Q444 433 444 487Q444 541 412.0 571.5Q380 602 315 602H189Z" transform="translate(0.000,0) scale(0.01700,-0.01700)"/><path d="M494 142H203L153 0H34L283 696H415L664 0H544ZM462 235 349 558 235 235Z" transform="translate(15.944,0) scale(0.01700,-0.01700)"/><path d="M671 345Q671 239 625.5 161.0Q580 83 496.5 41.5Q413 0 302 0H75V695H302Q413 695 496.5 652.5Q580 610 625.5 530.5Q671 451 671 345ZM554 345Q554 466 489.0 534.0Q424 602 302 602H189V93H302Q424 93 489.0 159.0Q554 225 554 345Z" transform="translate(32.993,0) scale(0.01700,-0.01700)"/><path d="M189 695V0H75V695Z" transform="translate(50.246,0) scale(0.01700,-0.01700)"/><path d="M494 142H203L153 0H34L283 696H415L664 0H544ZM462 235 349 558 235 235Z" transform="translate(59.934,0) scale(0.01700,-0.01700)"/><path d="M524 695V602H339V0H225V602H39V695Z" transform="translate(76.983,0) scale(0.01700,-0.01700)"/><path d="M189 603V399H429V306H189V93H459V0H75V696H459V603Z" transform="translate(91.771,0) scale(0.01700,-0.01700)"/><path d="M458 0 189 311V0H75V695H189V378L459 695H602L300 347L607 0Z" transform="translate(115.499,0) scale(0.01700,-0.01700)"/><path d="M189 695V0H75V695Z" transform="translate(131.460,0) scale(0.01700,-0.01700)"/><path d="M646 0H532L189 519V0H75V696H189L532 178V696H646Z" transform="translate(141.148,0) scale(0.01700,-0.01700)"/><path d="M671 345Q671 239 625.5 161.0Q580 83 496.5 41.5Q413 0 302 0H75V695H302Q413 695 496.5 652.5Q580 610 625.5 530.5Q671 451 671 345ZM554 345Q554 466 489.0 534.0Q424 602 302 602H189V93H302Q424 93 489.0 159.0Q554 225 554 345Z" transform="translate(158.605,0) scale(0.01700,-0.01700)"/><path d="M646 0H532L189 519V0H75V696H189L532 178V696H646Z" transform="translate(175.858,0) scale(0.01700,-0.01700)"/><path d="M189 603V399H429V306H189V93H459V0H75V696H459V603Z" transform="translate(193.315,0) scale(0.01700,-0.01700)"/><path d="M58 192H180Q184 147 215.5 118.0Q247 89 304 89Q363 89 396.0 117.5Q429 146 429 191Q429 226 408.5 248.0Q388 270 357.5 282.0Q327 294 273 308Q205 326 162.5 344.5Q120 363 90.0 402.0Q60 441 60 506Q60 566 90.0 611.0Q120 656 174.0 680.0Q228 704 299 704Q400 704 464.5 653.5Q529 603 536 515H410Q407 553 374.0 580.0Q341 607 287 607Q238 607 207.0 582.0Q176 557 176 510Q176 478 195.5 457.5Q215 437 245.0 425.0Q275 413 327 399Q396 380 439.5 361.0Q483 342 513.5 302.5Q544 263 544 197Q544 144 515.5 97.0Q487 50 432.5 21.5Q378 -7 304 -7Q234 -7 178.0 17.5Q122 42 90.0 87.0Q58 132 58 192Z" transform="translate(207.423,0) scale(0.01700,-0.01700)"/><path d="M58 192H180Q184 147 215.5 118.0Q247 89 304 89Q363 89 396.0 117.5Q429 146 429 191Q429 226 408.5 248.0Q388 270 357.5 282.0Q327 294 273 308Q205 326 162.5 344.5Q120 363 90.0 402.0Q60 441 60 506Q60 566 90.0 611.0Q120 656 174.0 680.0Q228 704 299 704Q400 704 464.5 653.5Q529 603 536 515H410Q407 553 374.0 580.0Q341 607 287 607Q238 607 207.0 582.0Q176 557 176 510Q176 478 195.5 457.5Q215 437 245.0 425.0Q275 413 327 399Q396 380 439.5 361.0Q483 342 513.5 302.5Q544 263 544 197Q544 144 515.5 97.0Q487 50 432.5 21.5Q378 -7 304 -7Q234 -7 178.0 17.5Q122 42 90.0 87.0Q58 132 58 192Z" transform="translate(222.891,0) scale(0.01700,-0.01700)"/></g></svg>